<?xml version="1.0" standalone="no"?>
<!DOCTYPE svg PUBLIC "-//W3C//DTD SVG 20010904//EN"
 "http://www.w3.org/TR/2001/REC-SVG-20010904/DTD/svg10.dtd">
<svg version="1.0" xmlns="http://www.w3.org/2000/svg"
 width="512.000000pt" height="512.000000pt" viewBox="0 0 512.000000 512.000000"
 preserveAspectRatio="xMidYMid meet">

<g transform="translate(0.000000,512.000000) scale(0.100000,-0.100000)"
fill="#ffff" stroke="none">
<path d="M641 4989 c-158 -27 -294 -99 -417 -223 -76 -77 -99 -107 -138 -186
-87 -180 -81 -60 -81 -1500 0 -1438 -6 -1322 80 -1495 94 -190 253 -324 470
-396 69 -23 78 -23 581 -27 l512 -3 252 -420 c281 -469 308 -503 434 -563 156
-75 296 -75 452 0 126 60 153 94 434 563 l252 420 512 3 c504 4 512 4 581 27
218 73 376 206 470 396 86 173 80 57 80 1495 0 1441 7 1322 -82 1500 -40 81
-61 109 -143 190 -105 105 -195 160 -330 202 l-75 23 -1895 1 c-1088 1 -1918
-2 -1949 -7z m3821 -527 c27 -13 64 -42 83 -65 68 -79 65 -15 65 -1317 0
-1335 5 -1246 -80 -1330 -80 -81 -70 -80 -704 -80 -532 0 -553 -1 -596 -21
-25 -11 -59 -34 -77 -51 -17 -17 -157 -239 -310 -494 -153 -255 -280 -464
-283 -464 -3 0 -130 209 -283 464 -153 255 -293 477 -310 494 -18 17 -52 40
-77 51 -43 20 -64 21 -596 21 -634 0 -624 -1 -704 80 -85 84 -80 -5 -80 1330
0 1261 -1 1228 50 1299 32 45 85 83 138 97 37 10 428 12 1882 11 l1835 -2 47
-23z"/>
</g>
</svg>
